<?xml version="1.0" encoding="UTF-8"?>
<svg id="Layer_2" data-name="Layer 2" xmlns="http://www.w3.org/2000/svg" viewBox="0 0 57.67 10.08">
  <g id="Layer_1-2" data-name="Layer 1">
    <path d="M4.15,1.94v6.31h-1.74V1.94H0V.34H6.55V1.94h-2.41Z"/>
    <path d="M10.24,8.25v-.66c-.21,.23-.46,.42-.76,.56-.29,.14-.65,.21-1.07,.21-.29,0-.56-.04-.81-.12-.25-.08-.47-.2-.66-.36-.19-.16-.34-.35-.45-.58-.11-.23-.16-.5-.16-.8v-.02c0-.33,.06-.62,.18-.86,.12-.24,.29-.44,.5-.6s.47-.28,.77-.36c.3-.08,.63-.12,.99-.12,.31,0,.58,.02,.81,.07,.23,.05,.45,.11,.67,.18v-.1c0-.36-.11-.64-.33-.82-.22-.19-.54-.28-.97-.28-.33,0-.62,.03-.88,.08-.25,.06-.52,.14-.8,.24l-.43-1.31c.33-.14,.68-.26,1.04-.35,.36-.09,.8-.14,1.31-.14,.94,0,1.63,.23,2.06,.69,.43,.46,.64,1.1,.64,1.92v3.51h-1.66Zm.03-2.44c-.15-.07-.32-.12-.5-.16-.18-.04-.38-.06-.59-.06-.37,0-.66,.07-.87,.21-.21,.14-.32,.35-.32,.62v.02c0,.23,.09,.41,.26,.54,.17,.13,.4,.19,.68,.19,.41,0,.73-.1,.98-.29,.24-.2,.37-.45,.37-.77v-.31Z"/>
    <path d="M16.49,8.25v-3.37c0-.41-.09-.71-.27-.92s-.44-.31-.77-.31-.59,.1-.79,.31c-.19,.21-.29,.51-.29,.92v3.37h-1.72V2.19h1.72v.87c.1-.13,.21-.25,.32-.37,.12-.12,.25-.22,.39-.31,.14-.09,.3-.16,.47-.22,.17-.05,.37-.08,.59-.08,.66,0,1.16,.2,1.52,.6,.36,.4,.54,.95,.54,1.65v3.92h-1.72Z"/>
    <path d="M24.86,8.35c-.14,.4-.35,.73-.63,.99-.28,.26-.63,.44-1.06,.56-.42,.12-.92,.18-1.48,.18-.5,0-.97-.05-1.42-.16-.45-.11-.87-.27-1.25-.47l.59-1.29c.32,.17,.63,.31,.95,.41,.32,.1,.68,.15,1.09,.15,.59,0,1.02-.14,1.31-.42,.28-.28,.42-.69,.42-1.23v-.29c-.26,.31-.54,.55-.84,.72-.3,.17-.68,.26-1.14,.26-.35,0-.69-.06-1.02-.19-.32-.12-.61-.31-.86-.55-.25-.24-.45-.54-.59-.89s-.22-.75-.22-1.2v-.02c0-.45,.08-.85,.23-1.2,.15-.35,.35-.65,.6-.89,.25-.24,.53-.42,.86-.55,.32-.12,.66-.19,1.01-.19,.47,0,.85,.09,1.15,.26,.3,.17,.57,.39,.8,.64v-.79h1.72V6.88c0,.57-.07,1.06-.21,1.46Zm-1.49-3.44c0-.2-.04-.39-.11-.56-.08-.17-.18-.32-.31-.45-.13-.12-.29-.22-.47-.29-.18-.07-.38-.1-.59-.1s-.4,.03-.58,.1c-.18,.07-.33,.16-.46,.29-.13,.12-.24,.27-.31,.45-.08,.17-.11,.36-.11,.56v.02c0,.42,.14,.76,.42,1.02,.28,.26,.63,.38,1.05,.38,.21,0,.41-.03,.59-.1,.18-.07,.34-.16,.47-.29,.13-.12,.24-.27,.31-.45,.08-.17,.11-.36,.11-.57v-.02Z"/>
    <path d="M31.88,6.46c-.17,.38-.4,.71-.69,1-.29,.29-.64,.51-1.04,.68-.4,.17-.84,.25-1.31,.25s-.9-.08-1.3-.24c-.4-.16-.74-.38-1.03-.67-.29-.28-.52-.61-.68-.99-.17-.38-.25-.79-.25-1.23v-.02c0-.44,.08-.85,.25-1.23,.17-.38,.4-.71,.69-1,.29-.29,.64-.51,1.04-.68,.4-.17,.84-.25,1.31-.25s.9,.08,1.3,.24c.4,.16,.74,.38,1.03,.67,.29,.28,.52,.61,.68,.99,.17,.38,.25,.79,.25,1.23v.02c0,.44-.08,.85-.25,1.23Zm-1.45-1.23c0-.23-.04-.44-.11-.64-.08-.2-.18-.38-.33-.53-.14-.15-.31-.28-.51-.37-.2-.09-.41-.14-.64-.14-.25,0-.47,.04-.66,.13-.19,.09-.36,.21-.49,.36-.14,.15-.24,.33-.31,.53-.07,.2-.11,.41-.11,.64v.02c0,.23,.04,.44,.11,.64,.08,.2,.18,.38,.33,.53,.14,.15,.31,.28,.5,.37,.19,.09,.41,.14,.65,.14s.47-.04,.66-.13c.19-.09,.36-.21,.49-.36,.14-.15,.24-.33,.31-.53,.07-.2,.11-.41,.11-.64v-.02Z"/>
    <path d="M36.12,1.94v6.31h-1.74V1.94h-2.41V.34h6.55V1.94h-2.41Z"/>
    <path d="M42.44,8.25v-.87c-.1,.13-.21,.25-.32,.37-.12,.12-.25,.22-.39,.31-.14,.09-.3,.16-.47,.22-.17,.05-.37,.08-.59,.08-.66,0-1.16-.2-1.52-.6-.36-.4-.54-.95-.54-1.65V2.19h1.72v3.37c0,.41,.09,.71,.27,.92,.18,.21,.44,.31,.77,.31s.59-.1,.79-.31c.19-.21,.29-.51,.29-.92V2.19h1.72v6.06h-1.72Z"/>
    <path d="M51.09,6.57c-.15,.39-.36,.72-.61,.98-.25,.27-.54,.47-.88,.6-.33,.14-.68,.2-1.04,.2-.46,0-.84-.09-1.14-.27-.3-.18-.55-.39-.75-.63v.78h-1.72V0h1.72V3.05c.21-.28,.47-.52,.76-.7,.3-.18,.67-.27,1.12-.27,.35,0,.7,.07,1.03,.2,.33,.14,.63,.34,.88,.6,.26,.27,.46,.6,.62,.98,.15,.39,.23,.83,.23,1.34v.02c0,.5-.08,.95-.23,1.34Zm-1.49-1.36c0-.25-.04-.48-.12-.69-.08-.21-.19-.39-.32-.53-.14-.15-.29-.26-.47-.34-.18-.08-.37-.12-.57-.12s-.39,.04-.57,.12c-.18,.08-.33,.19-.46,.34-.13,.15-.24,.33-.32,.53-.08,.21-.12,.44-.12,.69v.02c0,.25,.04,.48,.12,.69,.08,.21,.18,.39,.32,.53,.13,.15,.29,.26,.46,.34,.18,.08,.37,.12,.57,.12s.39-.04,.57-.12c.18-.08,.33-.19,.47-.34,.14-.15,.24-.32,.32-.53,.08-.2,.12-.44,.12-.69v-.02Z"/>
    <path d="M57.66,5.6c0,.06,0,.13-.02,.21h-4.21c.08,.39,.25,.69,.51,.89,.26,.2,.58,.3,.97,.3,.29,0,.54-.05,.77-.15,.23-.1,.46-.26,.7-.47l.98,.87c-.29,.35-.63,.63-1.04,.83-.41,.2-.89,.3-1.44,.3-.45,0-.87-.08-1.26-.23-.39-.15-.72-.37-1.01-.64-.28-.28-.5-.61-.66-.99-.16-.38-.24-.8-.24-1.27v-.02c0-.43,.07-.84,.22-1.22,.15-.38,.35-.72,.62-1.01,.26-.29,.58-.51,.94-.68,.37-.17,.77-.25,1.21-.25,.5,0,.94,.09,1.31,.27,.37,.18,.68,.42,.92,.73,.24,.31,.43,.66,.54,1.05,.12,.4,.18,.81,.18,1.24v.02c0,.08,0,.15,0,.21Zm-2.07-1.79c-.22-.24-.51-.36-.87-.36s-.65,.12-.88,.35c-.22,.23-.37,.55-.44,.94h2.59c-.05-.38-.19-.69-.41-.93Z"/>
  </g>
</svg>
