<?xml version="1.0" encoding="UTF-8"?>
<svg id="Layer_2" data-name="Layer 2" xmlns="http://www.w3.org/2000/svg" viewBox="0 0 163.69 31.02">
  <defs>
    <style>
      .cls-1 {
        fill: #231f20;
        stroke-width: 0px;
      }
    </style>
  </defs>
  <g id="Layer_1-2" data-name="Layer 1">
    <g>
      <path class="cls-1" d="m17.54,0v1.23h-5.49v22h-6.59V1.23H0V0h17.54Z"/>
      <path class="cls-1" d="m33.44,22.46c-1.03.77-2.36,1.17-3.99,1.17-1.93,0-3.09-.63-3.46-1.86-.97,1.23-2.43,1.86-4.39,1.86-3.19,0-5.39-1.53-5.39-4.49,0-3.46,3.16-5.32,9.52-5.59v-2.83c0-1.83-1-2.76-2.96-2.76-2.1,0-3.76.87-4.93,2.6h-.17v-2.33c1.83-1,3.99-1.5,6.46-1.5s4.26.4,5.42,1.2c1.3.9,1.96,2.33,1.96,4.26v8.75c0,.57.17.87.5.97h.13c.43,0,.87-.2,1.3-.57v1.13Zm-7.75-7.89c-2.03.1-3.06,1.53-3.06,4.33,0,1.76.63,2.93,1.6,2.93s1.46-.9,1.46-2.1v-5.16Z"/>
      <path class="cls-1" d="m50.98,23.23h-5.82v-12.41c0-1.26-.37-1.9-1.06-1.9-1.23,0-2.36,1.66-2.36,3.66v10.65h-5.82l-.03-16.07h5.59l.1,2.76c.93-2,2.9-3.13,5.16-3.13,3.19,0,4.26,1.76,4.26,5.62v10.82Z"/>
      <path class="cls-1" d="m71.61,25.36c-.17,1.6-1.17,2.93-3,4.03-1.83,1.1-4.06,1.63-6.72,1.63s-4.86-.3-6.56-.93-2.66-1.5-2.83-2.66c-.03-.1-.03-.27-.03-.43,0-1.76,1.56-3.06,4.79-3.06.23,0,.63.03,1.2.07l.03-.2c-2.46-.3-3.69-1.23-3.69-2.76,0-.87.47-1.6,1.36-2.16.93-.57,2-.87,3.23-.9-1.66-.23-2.96-.87-3.89-1.86-.9-1-1.36-2.06-1.36-3.19,0-3.49,3.19-5.76,8.15-5.76h9.02v1.23h-5.32v.17c2.7.33,4.03,1.76,4.03,4.29,0,3.29-2.56,5.59-7.06,5.59-2.1,0-3.13.3-3.13.87,0,.5.67.77,2,.8h3.93c3.93.2,5.89,1.7,5.89,4.53,0,.3,0,.57-.03.73Zm-9.68-.67c-2.16,0-3.73.96-3.73,2.33,0,1.73,1.6,2.83,3.83,2.83s3.86-1.06,3.86-2.76c0-1.36-1.66-2.4-3.96-2.4Zm1.9-11.88c0-3-.57-4.49-1.73-4.49s-1.73,1.5-1.73,4.49.57,4.49,1.73,4.49,1.73-1.5,1.73-4.49Z"/>
      <path class="cls-1" d="m88.35,21.17c-1.6,1.63-3.79,2.46-6.59,2.46-2.53,0-4.66-.8-6.39-2.36-1.7-1.56-2.56-3.59-2.56-6.09s.87-4.53,2.56-6.09c1.73-1.56,3.86-2.36,6.42-2.36s4.73.77,6.42,2.33c1.7,1.56,2.56,3.59,2.56,6.12,0,2.33-.8,4.33-2.43,5.99Zm-8.95-5.99c0,4.89.8,7.32,2.4,7.32s2.43-2.43,2.43-7.32-.8-7.32-2.43-7.32-2.4,2.43-2.4,7.32Z"/>
      <path class="cls-1" d="m108.98,0v1.23h-5.49v22h-6.59V1.23h-5.46V0h17.54Z"/>
      <path class="cls-1" d="m124.26,7.16v16.07h-5.52l-.13-2.73c-1.07,1.96-2.86,3.13-5.03,3.13-1.76,0-2.93-.47-3.53-1.36-.57-.93-.87-2.33-.87-4.19,0-1.23,0-3.03-.03-5.46v-5.46h5.82v12.08c0,1.4.4,2.1,1.2,2.1.7,0,1.23-.4,1.63-1.2.43-.83.63-1.6.63-2.36V7.16h5.82Z"/>
      <path class="cls-1" d="m142.19,21c-1.63,1.73-3.93,2.6-6.82,2.6-2.63,0-4.99-.47-7.02-1.43V0h5.59v9.09c.93-1.5,2.83-2.33,4.79-2.33s3.46.77,4.43,2.33c1,1.53,1.5,3.33,1.5,5.42,0,2.6-.83,4.76-2.46,6.49Zm-4.62-10.75c-.3-.93-.83-1.4-1.6-1.4-1.17,0-2.03,1.33-2.03,3.36v9.75c.37.17.77.23,1.26.23,2.1,0,2.93-2.23,2.93-7.02,0-2.16-.2-3.83-.57-4.93Z"/>
      <path class="cls-1" d="m163.69,15.11h-10.38c.07,3.39.77,5.56,2.06,6.49.57.43,1.33.67,2.26.67,2.13,0,4.13-1.13,5.16-3.03h.13l.37,2.83c-1.9,1.03-4.23,1.56-6.96,1.56-2.89,0-5.22-.77-6.96-2.33-1.7-1.56-2.56-3.63-2.56-6.12s.83-4.46,2.46-6.06c1.63-1.6,3.79-2.4,6.46-2.4,2.43,0,4.39.63,5.82,1.93,1.43,1.26,2.13,3.33,2.13,6.22v.23Zm-7.99-7.22c-1.3,0-2.26,1.83-2.36,5.99h4.49c0-.27.03-.8.03-1.03,0-3.29-.73-4.96-2.16-4.96Z"/>
    </g>
  </g>
</svg>