<?xml version="1.0" encoding="UTF-8"?>
<svg id="Layer_2" data-name="Layer 2" xmlns="http://www.w3.org/2000/svg" viewBox="0 0 59.84 10.09">
  <g id="Layer_1-2" data-name="Layer 1">
    <g>
      <path d="M4.15,1.94v6.31h-1.74V1.94H0V.34H6.56V1.94h-2.41Z"/>
      <path d="M9.74,8.25v-.66c-.42,.46-1,.77-1.83,.77-1.14,0-2.08-.66-2.08-1.85v-.02c0-1.32,1.01-1.93,2.44-1.93,.61,0,1.05,.1,1.48,.25v-.1c0-.71-.44-1.11-1.3-1.11-.66,0-1.12,.12-1.67,.33l-.43-1.31c.67-.29,1.32-.49,2.35-.49,1.88,0,2.7,.97,2.7,2.61v3.52h-1.66Zm.03-2.44c-.29-.14-.68-.23-1.1-.23-.73,0-1.19,.29-1.19,.84v.02c0,.46,.38,.74,.94,.74,.8,0,1.35-.44,1.35-1.06v-.31Z"/>
      <path d="M16.39,8.25v-3.38c0-.81-.38-1.23-1.04-1.23s-1.07,.42-1.07,1.23v3.38h-1.72V2.19h1.72v.86c.4-.51,.9-.97,1.78-.97,1.3,0,2.06,.86,2.06,2.25v3.92h-1.72Z"/>
      <path d="M21.98,10.09c-.98,0-1.91-.23-2.68-.63l.59-1.29c.62,.35,1.24,.55,2.05,.55,1.18,0,1.73-.57,1.73-1.65v-.29c-.51,.61-1.06,.98-1.98,.98-1.41,0-2.69-1.03-2.69-2.83v-.02c0-1.81,1.3-2.83,2.69-2.83,.94,0,1.49,.4,1.96,.91v-.79h1.72V6.89c0,2.28-1.13,3.2-3.38,3.2Zm1.68-5.18c0-.83-.64-1.4-1.48-1.4s-1.47,.58-1.47,1.4v.02c0,.84,.63,1.4,1.47,1.4s1.48-.58,1.48-1.4v-.02Z"/>
      <path d="M29.54,8.39c-1.88,0-3.27-1.39-3.27-3.13v-.02c0-1.74,1.4-3.16,3.29-3.16s3.27,1.39,3.27,3.13v.02c0,1.74-1.4,3.15-3.29,3.15Zm1.59-3.15c0-.89-.64-1.67-1.59-1.67s-1.57,.76-1.57,1.65v.02c0,.89,.64,1.67,1.59,1.67s1.57-.76,1.57-1.65v-.02Z"/>
      <path d="M37.51,1.94v6.31h-1.74V1.94h-2.41V.34h6.56V1.94h-2.41Z"/>
      <path d="M43.96,8.25v-.86c-.4,.51-.9,.97-1.78,.97-1.3,0-2.06-.86-2.06-2.25V2.19h1.72v3.38c0,.81,.38,1.23,1.04,1.23s1.07-.42,1.07-1.23V2.19h1.72v6.06h-1.72Z"/>
      <path d="M50.49,8.37c-.92,0-1.48-.42-1.89-.9v.79h-1.72V0h1.72V3.06c.42-.57,1-.98,1.89-.98,1.41,0,2.76,1.11,2.76,3.13v.02c0,2.02-1.32,3.13-2.76,3.13Zm1.04-3.16c0-1.01-.68-1.67-1.48-1.67s-1.47,.67-1.47,1.67v.02c0,1.01,.67,1.67,1.47,1.67s1.48-.66,1.48-1.67v-.02Z"/>
      <path d="M59.81,5.82h-4.22c.17,.78,.71,1.19,1.48,1.19,.58,0,.99-.18,1.47-.62l.98,.87c-.57,.7-1.38,1.13-2.48,1.13-1.82,0-3.17-1.28-3.17-3.13v-.02c0-1.73,1.23-3.16,3-3.16,2.02,0,2.95,1.57,2.95,3.29v.02c0,.17-.01,.27-.02,.43Zm-2.93-2.36c-.71,0-1.18,.51-1.31,1.29h2.59c-.1-.77-.55-1.29-1.28-1.29Z"/>
    </g>
  </g>
</svg>
