<svg width="20" height="24" viewBox="0 0 20 24" fill="none" xmlns="http://www.w3.org/2000/svg">
<path d="M19.0158 17.3687V8.2948C19.0158 5.83766 18.1898 3.94215 16.5554 2.60827C14.9209 1.29194 12.7768 0.625 10.1582 0.625C7.38137 0.625 5.13181 1.29194 3.42706 2.64337C1.72232 3.9948 0.913884 5.59194 1.00176 7.4348L1.01933 7.55766L6.74868 7.57521C6.74868 6.75031 7.0123 6.10092 7.53954 5.6446C8.06678 5.17072 8.80492 4.94256 9.77153 4.94256C10.8612 4.94256 11.6696 5.24092 12.232 5.82011C12.7944 6.39929 13.058 7.22419 13.058 8.27725V10.0148H9.75395C6.57293 10.0148 4.14763 10.6115 2.49561 11.7875C0.826011 12.9634 0 14.6307 0 16.7895C0 18.8254 0.615114 20.4401 1.86292 21.6336C3.11072 22.8095 4.88576 23.4062 7.18805 23.4062C8.57645 23.4062 9.75395 23.0552 10.7557 22.3532C11.7575 21.6511 12.5483 20.756 13.1634 19.703C13.2337 20.2822 13.3392 20.8613 13.4974 21.4054C13.6555 21.9671 13.8313 22.4936 14.0598 22.985H20C19.6661 22.0899 19.42 21.1948 19.2619 20.2822C19.0861 19.3695 19.0158 18.4042 19.0158 17.3687ZM13.058 16.456C12.7768 17.1405 12.232 17.7197 11.406 18.2462C10.5975 18.7552 9.66608 19.0185 8.62917 19.0185C7.78559 19.0185 7.11775 18.7903 6.64323 18.3515C6.15114 17.9128 5.9051 17.316 5.9051 16.5789C5.9051 15.6838 6.22144 14.9291 6.8717 14.2973C7.52197 13.6654 8.471 13.3495 9.73638 13.3495H13.0404V16.456H13.058Z" fill="#2D93E7"/>
</svg>
