<?xml version="1.0" encoding="UTF-8"?>
<svg id="Layer_2" data-name="Layer 2" xmlns="http://www.w3.org/2000/svg" viewBox="0 0 130.82 23.78">
  <g id="Layer_1-2" data-name="Layer 1">
    <g>
      <path d="M12.72,.89v3.21h-4.36v13.24H4.36V4.1H0V.89H12.72Z"/>
      <path d="M14.7,7.24c.51-1.02,1.2-1.8,2.07-2.34,.87-.55,1.85-.82,2.93-.82,.92,0,1.73,.19,2.42,.56s1.23,.87,1.61,1.48v-1.85h4.01v13.08h-4.01v-1.85c-.39,.61-.93,1.1-1.63,1.48-.7,.37-1.5,.56-2.43,.56-1.06,0-2.03-.28-2.91-.83-.88-.55-1.57-1.34-2.07-2.37-.51-1.02-.76-2.21-.76-3.55s.25-2.52,.76-3.54Zm8.2,1.2c-.55-.58-1.23-.87-2.03-.87s-1.47,.29-2.03,.86c-.55,.57-.83,1.36-.83,2.36s.28,1.79,.83,2.38c.55,.59,1.23,.88,2.03,.88s1.47-.29,2.03-.87,.83-1.37,.83-2.37-.28-1.79-.83-2.37Z"/>
      <path d="M42.28,5.61c.91,.99,1.37,2.36,1.37,4.09v7.64h-3.98v-7.1c0-.87-.23-1.55-.68-2.04-.45-.48-1.06-.73-1.83-.73s-1.37,.24-1.83,.73c-.45,.48-.68,1.16-.68,2.04v7.1h-4.01V4.26h4.01v1.73c.41-.58,.95-1.03,1.64-1.37,.69-.34,1.46-.5,2.32-.5,1.53,0,2.75,.5,3.67,1.49Z"/>
      <path d="M53.83,4.64c.69,.37,1.23,.87,1.61,1.48v-1.85h4.01v13.05c0,1.2-.24,2.29-.71,3.27-.48,.98-1.2,1.75-2.18,2.33-.98,.58-2.19,.87-3.64,.87-1.94,0-3.51-.46-4.71-1.37-1.2-.91-1.89-2.15-2.06-3.71h3.96c.12,.5,.42,.89,.89,1.18,.47,.29,1.05,.43,1.73,.43,.83,0,1.49-.24,1.98-.71,.49-.48,.74-1.24,.74-2.28v-1.85c-.39,.61-.93,1.11-1.62,1.49-.69,.38-1.49,.57-2.41,.57-1.08,0-2.05-.28-2.93-.83-.88-.55-1.57-1.34-2.07-2.37-.51-1.02-.76-2.21-.76-3.55s.25-2.52,.76-3.54c.51-1.02,1.2-1.8,2.07-2.34,.87-.55,1.85-.82,2.93-.82,.92,0,1.73,.19,2.42,.56Zm.77,3.8c-.55-.58-1.23-.87-2.03-.87s-1.47,.29-2.03,.86c-.55,.57-.83,1.36-.83,2.36s.28,1.79,.83,2.38c.55,.59,1.23,.88,2.03,.88s1.47-.29,2.03-.87,.83-1.37,.83-2.37-.28-1.79-.83-2.37Z"/>
      <path d="M64.85,16.71c-1.02-.55-1.83-1.33-2.41-2.34-.59-1.02-.88-2.2-.88-3.56s.3-2.53,.89-3.55c.59-1.02,1.41-1.81,2.44-2.35,1.03-.55,2.19-.82,3.47-.82s2.44,.27,3.47,.82,1.84,1.33,2.44,2.35c.59,1.02,.89,2.21,.89,3.55s-.3,2.53-.9,3.55c-.6,1.02-1.42,1.81-2.46,2.36-1.04,.55-2.2,.82-3.48,.82s-2.43-.27-3.46-.82Zm5.41-3.49c.54-.56,.81-1.37,.81-2.41s-.26-1.85-.79-2.41-1.17-.84-1.93-.84-1.43,.28-1.94,.83c-.52,.55-.77,1.36-.77,2.43s.25,1.85,.76,2.41c.51,.56,1.14,.84,1.91,.84s1.42-.28,1.96-.84Z"/>
      <path d="M84.57,13.94v3.4h-2.04c-1.45,0-2.59-.36-3.4-1.07-.81-.71-1.22-1.87-1.22-3.48V7.59h-1.59v-3.33h1.59V1.08h4.01v3.19h2.62v3.33h-2.62v5.25c0,.39,.09,.67,.28,.84,.19,.17,.5,.26,.94,.26h1.43Z"/>
      <path d="M99.7,4.26v13.08h-4.01v-1.78c-.41,.58-.96,1.04-1.65,1.39-.7,.35-1.47,.53-2.31,.53-1,0-1.88-.22-2.65-.67-.77-.45-1.36-1.09-1.78-1.93-.42-.84-.63-1.84-.63-2.98V4.26h3.98v7.1c0,.88,.23,1.55,.68,2.04s1.06,.73,1.83,.73,1.4-.24,1.85-.73c.45-.48,.68-1.16,.68-2.04V4.26h4.01Z"/>
      <path d="M108.21,4.64c.7-.37,1.51-.56,2.41-.56,1.08,0,2.05,.27,2.93,.82s1.57,1.33,2.07,2.34c.51,1.02,.76,2.19,.76,3.54s-.25,2.53-.76,3.55c-.51,1.02-1.2,1.81-2.07,2.37-.87,.55-1.85,.83-2.93,.83-.92,0-1.73-.18-2.41-.55s-1.23-.86-1.62-1.46v1.83h-4.01V0h4.01V6.12c.37-.61,.91-1.1,1.62-1.48Zm3.27,3.78c-.55-.57-1.24-.86-2.05-.86s-1.47,.29-2.03,.87c-.55,.58-.83,1.37-.83,2.37s.28,1.79,.83,2.37c.55,.58,1.23,.87,2.03,.87s1.48-.29,2.04-.88c.56-.59,.84-1.38,.84-2.38s-.28-1.78-.83-2.36Z"/>
      <path d="M130.75,11.76h-9.07c.06,.81,.32,1.43,.79,1.86,.46,.43,1.03,.65,1.7,.65,1,0,1.69-.42,2.09-1.27h4.26c-.22,.86-.61,1.63-1.18,2.32-.57,.69-1.29,1.23-2.14,1.62s-1.82,.59-2.88,.59c-1.28,0-2.42-.27-3.42-.82-1-.55-1.78-1.33-2.34-2.34-.56-1.02-.84-2.2-.84-3.56s.28-2.55,.83-3.56c.55-1.02,1.33-1.8,2.33-2.34s2.15-.82,3.45-.82,2.39,.27,3.37,.8c.98,.53,1.75,1.29,2.31,2.27,.55,.98,.83,2.13,.83,3.44,0,.37-.02,.77-.07,1.17Zm-4.03-2.23c0-.69-.23-1.23-.7-1.64s-1.05-.61-1.76-.61-1.24,.2-1.7,.59c-.46,.39-.75,.95-.86,1.66h5.02Z"/>
    </g>
  </g>
</svg>
