<svg width="16" height="11" viewBox="0 0 16 11" fill="none" xmlns="http://www.w3.org/2000/svg">
<path d="M5.93783 9.06162C6.17975 9.30354 6.17975 9.69577 5.93783 9.9377C5.6959 10.1796 5.30367 10.1796 5.06174 9.9377L0.681343 5.55729C0.439419 5.31537 0.439419 4.92314 0.681343 4.68121C0.923265 4.43929 1.3155 4.43929 1.55742 4.68121L5.93783 9.06162Z" fill="#A886F7"/>
<path d="M1.55738 5.55706C1.31546 5.79899 0.923265 5.79922 0.681343 5.55729C0.439419 5.31537 0.439419 4.92314 0.681343 4.68121L5.0617 0.300581C5.30363 0.0586587 5.69586 0.0586587 5.93778 0.300582C6.17971 0.542504 6.17971 0.934739 5.93778 1.17666L1.55738 5.55706Z" fill="#A886F7"/>
<path d="M1.13862 5.7386C0.796492 5.7386 0.51914 5.46125 0.519141 5.11912C0.519141 4.77699 0.796492 4.49963 1.13862 4.49963L14.7672 4.49964C15.1094 4.49964 15.3867 4.77699 15.3867 5.11912C15.3867 5.46125 15.1094 5.7386 14.7672 5.7386L1.13862 5.7386Z" fill="#A886F7"/>
</svg>
