<svg width="35" height="16" viewBox="0 0 35 16" fill="none" xmlns="http://www.w3.org/2000/svg">
<path d="M1.81897 7.20508C1.26668 7.20508 0.81897 7.65279 0.81897 8.20508C0.81897 8.75736 1.26668 9.20508 1.81897 9.20508V7.20508ZM34.5261 8.91218C34.9166 8.52166 34.9166 7.8885 34.5261 7.49797L28.1621 1.13401C27.7716 0.743486 27.1384 0.743486 26.7479 1.13401C26.3574 1.52453 26.3574 2.1577 26.7479 2.54822L32.4048 8.20508L26.7479 13.8619C26.3574 14.2525 26.3574 14.8856 26.7479 15.2761C27.1384 15.6667 27.7716 15.6667 28.1621 15.2761L34.5261 8.91218ZM1.81897 9.20508H33.819V7.20508H1.81897V9.20508Z" fill="url(#paint0_linear_2070_9971)"/>
<defs>
<linearGradient id="paint0_linear_2070_9971" x1="1.81897" y1="9.20508" x2="34.1745" y2="9.20508" gradientUnits="userSpaceOnUse">
<stop stop-color="#78C0FF"/>
<stop offset="1" stop-color="#A882FA"/>
</linearGradient>
</defs>
</svg>
