<svg width="25" height="18" viewBox="0 0 25 18" fill="none" xmlns="http://www.w3.org/2000/svg">
<path d="M16.2216 2.63679C15.8311 2.24627 15.8311 1.6131 16.2216 1.22258C16.6122 0.832056 17.2453 0.832056 17.6358 1.22258L24.7069 8.29365C25.0974 8.68417 25.0974 9.31734 24.7069 9.70786C24.3164 10.0984 23.6832 10.0984 23.2927 9.70786L16.2216 2.63679Z" fill="white"/>
<path d="M23.2928 8.29402C23.6833 7.9035 24.3164 7.90312 24.7069 8.29365C25.0974 8.68417 25.0974 9.31734 24.7069 9.70786L17.6359 16.7793C17.2454 17.1698 16.6122 17.1698 16.2217 16.7793C15.8312 16.3888 15.8312 15.7556 16.2217 15.3651L23.2928 8.29402Z" fill="white"/>
<path d="M23.9688 8.00098C24.521 8.00098 24.9688 8.44869 24.9688 9.00098C24.9688 9.55326 24.521 10.001 23.9688 10.001L1.96875 10.001C1.41647 10.001 0.96875 9.55326 0.96875 9.00098C0.96875 8.44869 1.41647 8.00098 1.96875 8.00098L23.9688 8.00098Z" fill="white"/>
</svg>
