<svg width="15" height="15" viewBox="0 0 15 15" fill="none" xmlns="http://www.w3.org/2000/svg">
<g clip-path="url(#clip0_917_12828)">
<path d="M0.71875 6.32031C1.13281 6.32031 1.42969 6.00781 1.42969 5.59375V4.9375L1.27344 2.21094L3.32812 4.375L5.73438 6.79688C5.86719 6.9375 6.03906 7 6.22656 7C6.67188 7 7 6.71094 7 6.27344C7 6.0625 6.92969 5.875 6.78906 5.73438L4.375 3.32812L2.21094 1.27344L4.94531 1.42969H5.59375C6.00781 1.42969 6.32812 1.14062 6.32812 0.71875C6.32812 0.296875 6.01562 0 5.59375 0H1.25781C0.460938 0 0 0.460938 0 1.25781V5.59375C0 6 0.304688 6.32031 0.71875 6.32031ZM9.28906 14.9062H13.625C14.4219 14.9062 14.8906 14.4453 14.8906 13.6484V9.3125C14.8906 8.90625 14.5859 8.58594 14.1641 8.58594C13.7578 8.58594 13.4531 8.89844 13.4531 9.3125V9.96875L13.6172 12.6953L11.5547 10.5312L9.15625 8.10938C9.02344 7.96875 8.84375 7.90625 8.65625 7.90625C8.21875 7.90625 7.88281 8.19531 7.88281 8.63281C7.88281 8.84375 7.96094 9.03125 8.10156 9.17188L10.5078 11.5781L12.6797 13.6328L9.94531 13.4766H9.28906C8.875 13.4766 8.55469 13.7656 8.55469 14.1875C8.55469 14.6094 8.875 14.9062 9.28906 14.9062Z" fill="black" fill-opacity="0.85"/>
</g>
<defs>
<clipPath id="clip0_917_12828">
<rect width="14.8906" height="14.9141" fill="white"/>
</clipPath>
</defs>
</svg>
