<svg width="20" height="11" viewBox="0 0 20 11" fill="none" xmlns="http://www.w3.org/2000/svg">
<g clip-path="url(#clip0_102_23)">
<path d="M0.732422 10.0293H19.0137C19.4238 10.0293 19.7559 9.69727 19.7559 9.27734C19.7559 8.86719 19.4238 8.54492 19.0137 8.54492H0.732422C0.322266 8.54492 0 8.86719 0 9.27734C0 9.69727 0.322266 10.0293 0.732422 10.0293ZM0.732422 5.76172H19.0137C19.4238 5.76172 19.7559 5.43945 19.7559 5.0293C19.7559 4.60938 19.4238 4.27734 19.0137 4.27734H0.732422C0.322266 4.27734 0 4.60938 0 5.0293C0 5.43945 0.322266 5.76172 0.732422 5.76172ZM0.732422 1.50391H19.0137C19.4238 1.50391 19.7559 1.18164 19.7559 0.771484C19.7559 0.361328 19.4238 0.0292969 19.0137 0.0292969H0.732422C0.322266 0.0292969 0 0.361328 0 0.771484C0 1.18164 0.322266 1.50391 0.732422 1.50391Z" fill="white" fill-opacity="0.85"/>
</g>
<defs>
<clipPath id="clip0_102_23">
<rect width="19.7559" height="10.0293" fill="white"/>
</clipPath>
</defs>
</svg>
