<svg width="22" height="18" viewBox="0 0 22 18" fill="none" xmlns="http://www.w3.org/2000/svg">
<path d="M8.91021 14C8.71424 14 8.52631 13.9207 8.38776 13.7797L4.20744 9.52689C4.07283 9.3851 3.99834 9.1952 4.00003 8.99809C4.00171 8.80097 4.07943 8.61241 4.21644 8.47303C4.35345 8.33364 4.53879 8.25458 4.73254 8.25286C4.9263 8.25115 5.11296 8.32693 5.25233 8.46387L8.91021 12.1852L16.7477 4.21103C16.887 4.07409 17.0737 3.99832 17.2675 4.00003C17.4612 4.00174 17.6466 4.08081 17.7836 4.22019C17.9206 4.35958 17.9983 4.54814 18 4.74525C18.0017 4.94237 17.9272 5.13227 17.7926 5.27406L9.43266 13.7797C9.29411 13.9207 9.10618 14 8.91021 14Z" fill="#ffffff"/>
</svg>
