<?xml version="1.0" encoding="utf-8"?>
<!-- Generator: Adobe Illustrator 27.9.0, SVG Export Plug-In . SVG Version: 6.00 Build 0)  -->
<svg version="1.1" id="Layer_1" xmlns="http://www.w3.org/2000/svg" xmlns:xlink="http://www.w3.org/1999/xlink" x="0px" y="0px"
	 viewBox="0 0 9.6 17" style="enable-background:new 0 0 9.6 17;" xml:space="preserve">
<path d="M9.6,8.5c0-0.2-0.1-0.5-0.3-0.6L1.5,0.2C1.3,0.1,1.1,0,0.9,0C0.4,0,0,0.4,0,0.9c0,0.2,0.1,0.5,0.2,0.6l7.1,6.9l-7.1,7
	C0.1,15.6,0,15.8,0,16.1c0,0.5,0.4,0.9,0.9,0.9c0.2,0,0.5-0.1,0.6-0.3l7.7-7.6C9.4,8.9,9.5,8.7,9.6,8.5L9.6,8.5z"/>
</svg>
