<svg width="14" height="9" viewBox="0 0 14 9" fill="none" xmlns="http://www.w3.org/2000/svg">
<g clip-path="url(#clip0_832_13586)">
<path d="M6.78906 8.32031C6.98438 8.32031 7.17969 8.24219 7.3125 8.09375L13.3594 1.89844C13.4922 1.76562 13.5703 1.59375 13.5703 1.39844C13.5703 0.992188 13.2656 0.679688 12.8594 0.679688C12.6641 0.679688 12.4844 0.757812 12.3516 0.882812L6.36719 7H7.20312L1.21875 0.882812C1.09375 0.757812 0.914062 0.679688 0.710938 0.679688C0.304688 0.679688 0 0.992188 0 1.39844C0 1.59375 0.078125 1.76562 0.210938 1.90625L6.25781 8.09375C6.40625 8.24219 6.58594 8.32031 6.78906 8.32031Z" fill="black" fill-opacity="0.85"/>
</g>
<defs>
<clipPath id="clip0_832_13586">
<rect width="13.5703" height="8.32031" fill="white"/>
</clipPath>
</defs>
</svg>
