<svg width="18" height="16" viewBox="0 0 18 16" fill="none" xmlns="http://www.w3.org/2000/svg">
<path fill-rule="evenodd" clip-rule="evenodd" d="M11.2944 1.45278C11.2944 1.53717 11.226 1.60557 11.1416 1.60557C11.0573 1.60557 10.9889 1.53717 10.9889 1.45278C10.9889 1.3684 11.0573 1.3 11.1416 1.3C11.226 1.3 11.2944 1.3684 11.2944 1.45278ZM12.2891 2.34392C12.4805 2.09786 12.5944 1.78863 12.5944 1.45278C12.5944 0.650434 11.944 0 11.1416 0C10.3393 0 9.68885 0.650434 9.68885 1.45278C9.68885 1.80201 9.81207 2.12245 10.0174 2.37301C8.51309 2.66776 7.19868 3.49912 6.27486 4.65889C6.0512 4.93968 6.09751 5.34862 6.3783 5.57229C6.65909 5.79595 7.06803 5.74964 7.2917 5.46885C8.2238 4.29869 9.64393 3.55557 11.2324 3.55557C14.0231 3.55557 16.3028 5.8566 16.3028 8.71671C16.3028 11.5768 14.0231 13.8778 11.2324 13.8778C9.73455 13.8778 8.38693 13.2173 7.45638 12.1611C7.21907 11.8917 6.80833 11.8658 6.53898 12.1031C6.26962 12.3404 6.24365 12.7511 6.48096 13.0205C7.64528 14.342 9.34197 15.1778 11.2324 15.1778C14.7603 15.1778 17.6028 12.2754 17.6028 8.71671C17.6028 5.52128 15.311 2.85498 12.2891 2.34392ZM2.13812 6.53753C2.13812 6.17855 2.42914 5.88753 2.78812 5.88753H6.42009C6.77907 5.88753 7.07009 6.17855 7.07009 6.53753C7.07009 6.89652 6.77907 7.18753 6.42009 7.18753H2.78812C2.42914 7.18753 2.13812 6.89652 2.13812 6.53753ZM0.322144 8.71671C0.322144 8.35772 0.613158 8.06671 0.972144 8.06671H6.42009C6.77907 8.06671 7.07009 8.35772 7.07009 8.71671C7.07009 9.07569 6.77907 9.36671 6.42009 9.36671H0.972144C0.613158 9.36671 0.322144 9.07569 0.322144 8.71671ZM2.13812 10.8959C2.13812 10.5369 2.42914 10.2459 2.78812 10.2459H6.42009C6.77907 10.2459 7.07009 10.5369 7.07009 10.8959C7.07009 11.2549 6.77907 11.5459 6.42009 11.5459H2.78812C2.42914 11.5459 2.13812 11.2549 2.13812 10.8959ZM11.1416 8.86949C11.226 8.86949 11.2944 8.80109 11.2944 8.71671C11.2944 8.63233 11.226 8.56392 11.1416 8.56392C11.0573 8.56392 10.9889 8.63233 10.9889 8.71671C10.9889 8.80109 11.0573 8.86949 11.1416 8.86949ZM11.1416 10.1695C11.944 10.1695 12.5944 9.51906 12.5944 8.71671C12.5944 8.55616 12.5684 8.40169 12.5203 8.2573L13.7804 6.99715C14.0343 6.74331 14.0343 6.33175 13.7804 6.07791C13.5266 5.82407 13.115 5.82407 12.8612 6.07791L11.601 7.33806C11.4567 7.28997 11.3022 7.26392 11.1416 7.26392C10.3393 7.26392 9.68885 7.91436 9.68885 8.71671C9.68885 9.51906 10.3393 10.1695 11.1416 10.1695Z" fill="white"/>
</svg>
