<svg width="19" height="17" viewBox="0 0 19 17" fill="none" xmlns="http://www.w3.org/2000/svg">
<path d="M4.07273 0.474076C4.1235 0.407838 4.18934 0.354076 4.26502 0.317048C4.34071 0.28002 4.42416 0.260742 4.50878 0.260742H14.3199C14.4045 0.260742 14.4879 0.28002 14.5636 0.317048C14.6393 0.354076 14.7051 0.407838 14.7559 0.474076L18.0001 4.71301C18.1625 4.91034 18.1702 5.19301 18.011 5.39994L9.85037 16.0474C9.7996 16.1136 9.73377 16.1674 9.65808 16.2044C9.5824 16.2415 9.49894 16.2607 9.41433 16.2607C9.32971 16.2607 9.24625 16.2415 9.17057 16.2044C9.09488 16.1674 9.02905 16.1136 8.97828 16.0474L0.802371 5.38074C0.731611 5.28842 0.693359 5.17614 0.693359 5.06074C0.693359 4.94534 0.731611 4.83306 0.802371 4.74074L4.07273 0.474076ZM16.4848 4.51141L14.5161 1.94074L13.6702 4.51461L16.4848 4.51141ZM12.5244 4.51568L13.572 1.32741H5.2566L6.30639 4.52208L12.5244 4.51568ZM6.65632 5.58874L9.41433 13.9845L12.1745 5.58341L6.65632 5.58874ZM5.16176 4.52314L4.31147 1.93968L2.32963 4.52634L5.16176 4.52314ZM2.32745 5.59408L7.90124 12.8655L5.51169 5.59088L2.32854 5.59408H2.32745ZM10.9274 12.8655L16.5121 5.58021L13.3202 5.58234L10.9274 12.8655Z" fill="#F057C1"/>
</svg>
