<svg width="9" height="15" viewBox="0 0 9 15" fill="none" xmlns="http://www.w3.org/2000/svg">
<path fill-rule="evenodd" clip-rule="evenodd" d="M4.66158 9.78556L7.32 7.12715C7.51354 6.93361 7.82732 6.93361 8.02086 7.12715C8.2144 7.32069 8.2144 7.63447 8.02086 7.82801L4.51654 11.3323C4.323 11.5259 4.00921 11.5259 3.81568 11.3323L0.311169 7.82805C0.117631 7.63451 0.117632 7.32072 0.31117 7.12718C0.504708 6.93364 0.818496 6.93364 1.01203 7.12718L3.67041 9.78556L3.67041 1.39695C3.67041 1.12325 3.89229 0.901367 4.166 0.901367C4.4397 0.901367 4.66158 1.12325 4.66158 1.39695L4.66158 9.78556ZM0.666016 13.4771C0.389873 13.4771 0.166016 13.701 0.166016 13.9771C0.166016 14.2533 0.389873 14.4771 0.666016 14.4771H7.66601C7.94216 14.4771 8.16601 14.2533 8.16601 13.9771C8.16601 13.701 7.94216 13.4771 7.66601 13.4771H0.666016Z" fill="#A886F7"/>
</svg>
