<svg width="14" height="15" viewBox="0 0 14 15" fill="none" xmlns="http://www.w3.org/2000/svg">
<path d="M14 2.956C13.9786 3.03384 13.9589 3.11223 13.9353 3.18924C13.8566 3.4379 13.7173 3.6631 13.5299 3.84458C10.4127 6.96128 7.29618 10.0783 4.18039 13.1955C4.08044 13.2957 3.95128 13.3617 3.81148 13.3838C2.71514 13.5839 1.6188 13.7889 0.522467 13.992C0.185617 14.0545 -0.0531115 13.818 0.0102019 13.4819C0.215217 12.3716 0.415848 11.2618 0.631826 10.1526C0.656494 10.0249 0.744198 9.89197 0.838483 9.79632C3.72897 6.89815 6.62221 4.00263 9.51818 1.10977C9.65029 0.977658 9.7876 0.850209 9.91368 0.712619C10.2393 0.356309 10.5972 0.0572836 11.1016 0H11.3756C11.8756 0.0498833 12.2286 0.343976 12.5572 0.692337C12.8724 1.02672 13.2038 1.34548 13.5305 1.6689C13.7181 1.84951 13.8572 2.07453 13.9348 2.32314C13.9597 2.40536 13.9783 2.48896 14 2.57201V2.956ZM9.70565 2.13374L1.66293 10.1776L3.8323 12.3467L11.8772 4.30668L9.70565 2.13374ZM12.5013 3.71494L12.9371 3.27256C13.26 2.94366 13.2613 2.56515 12.9371 2.23872C12.5844 1.88314 12.2303 1.52902 11.8748 1.17637C11.7996 1.09707 11.7193 1.02282 11.6344 0.954087C11.3965 0.772095 11.0588 0.76771 10.8395 0.966147C10.6477 1.13855 10.4832 1.34027 10.3103 1.52281L12.5013 3.71494ZM0.916871 13.0848L2.94509 12.709L1.29237 11.0568C1.1704 11.7152 1.04596 12.3878 0.916871 13.0848Z" fill="white"/>
</svg>
