<?xml version="1.0" encoding="UTF-8"?>
<!--Generator: Apple Native CoreSVG 232.5-->
<!DOCTYPE svg
PUBLIC "-//W3C//DTD SVG 1.1//EN"
       "http://www.w3.org/Graphics/SVG/1.1/DTD/svg11.dtd">
<svg version="1.1" xmlns="http://www.w3.org/2000/svg" xmlns:xlink="http://www.w3.org/1999/xlink" width="21.3516" height="16.4453">
 <g>
  <rect height="16.4453" opacity="0" width="21.3516" x="0" y="0"/>
  <path d="M10.6797 14.9219C16.9922 14.9219 21.3516 9.82031 21.3516 8.22656C21.3516 6.625 16.9844 1.53125 10.6797 1.53125C4.45312 1.53125 0 6.625 0 8.22656C0 9.82031 4.44531 14.9219 10.6797 14.9219ZM10.6797 13.6875C5.53125 13.6875 1.36719 9.32812 1.36719 8.22656C1.36719 7.29687 5.53125 2.76562 10.6797 2.76562C15.8047 2.76562 19.9844 7.29687 19.9844 8.22656C19.9844 9.32812 15.8047 13.6875 10.6797 13.6875ZM10.6797 12.6016C13.1094 12.6016 15.0625 10.6094 15.0625 8.22656C15.0625 5.78125 13.1094 3.85156 10.6797 3.85156C8.23438 3.85156 6.28125 5.78125 6.28125 8.22656C6.28125 10.6094 8.23438 12.6016 10.6797 12.6016ZM10.6797 9.67969C9.86719 9.67969 9.21094 9.02344 9.21094 8.22656C9.21094 7.42187 9.86719 6.77344 10.6797 6.77344C11.4844 6.77344 12.1406 7.42187 12.1406 8.22656C12.1406 9.02344 11.4844 9.67969 10.6797 9.67969Z" fill="#ffffff" fill-opacity="0.85"/>
  <path d="M15.9766 15.6406C16.5781 16.2344 17.5312 16.25 18.125 15.6328C18.7266 15.0078 18.7031 14.0859 18.1172 13.5L5.05469 0.445312C4.46875-0.148438 3.5-0.148438 2.90625 0.445312C2.32031 1.02344 2.32031 2 2.90625 2.58594Z" fill="#1e1e1e"/>
  <path d="M16.625 14.9922C16.8594 15.2344 17.2266 15.25 17.4766 14.9922C17.7266 14.7344 17.7109 14.3828 17.4766 14.1406L4.40625 1.08594C4.17969 0.851562 3.78906 0.851562 3.54688 1.08594C3.32031 1.3125 3.32031 1.71094 3.54688 1.9375Z" fill="#ffffff" fill-opacity="0.85"/>
 </g>
</svg>
