<svg width="56" height="37" viewBox="0 0 56 37" fill="none" xmlns="http://www.w3.org/2000/svg">
<path d="M45.0577 15.0806C44.3472 15.0806 43.6444 15.1488 42.9549 15.2841C42.6403 6.80275 35.6535 0 27.1102 0C19.2538 0 12.6062 5.82234 11.44 13.4763C5.10571 13.6313 0 18.8409 0 25.222C0 31.7005 5.2621 36.9711 11.7302 36.9711H21.5439C22.2861 36.9711 22.8875 36.3688 22.8875 35.6254C22.8875 34.882 22.2861 34.2797 21.5439 34.2797H11.7302C6.74378 34.2797 2.68712 30.2165 2.68712 25.222C2.68712 20.2276 6.74396 16.1644 11.7302 16.1644C11.9751 16.1644 12.2341 16.1764 12.5218 16.2013L13.8833 16.3194L13.9781 14.9539C14.4548 8.07778 20.2231 2.69146 27.1102 2.69146C34.3713 2.69146 40.2789 8.60854 40.2789 15.8814C40.2789 16.2157 40.263 16.5731 40.2302 16.9738L40.0541 19.1212L42.058 18.3376C43.0174 17.9624 44.0267 17.7722 45.058 17.7722C49.6098 17.7722 53.3131 21.4814 53.3131 26.0406C53.3131 30.5995 49.6098 34.3087 45.058 34.3087C44.9384 34.3087 41.3663 34.3015 37.8087 34.2944C34.2771 34.2872 30.76 34.28 30.6432 34.28C29.807 34.28 29.3699 33.8767 29.3437 33.0812V18.5547L30.8018 20.2893C31.2795 20.8581 32.1272 20.9309 32.6948 20.452C33.2625 19.9735 33.3352 19.1246 32.8572 18.556L29.6261 14.7113C29.2191 14.227 28.6342 13.9493 28.0213 13.9493C27.4085 13.9493 26.8236 14.227 26.4167 14.7113L23.1856 18.556C22.7076 19.1246 22.7804 19.9735 23.3481 20.452C23.6001 20.6646 23.9072 20.7684 24.2126 20.7684C24.5954 20.7684 24.9754 20.6054 25.241 20.2893L26.6564 18.6051V33.0943C26.6564 34.6529 27.7182 36.9713 30.6431 36.9713C30.7599 36.9713 34.2743 36.9785 37.803 36.9855C41.3632 36.9928 44.938 37 45.0579 37C51.0915 37 56 32.0836 56 26.0404C56 19.997 51.0913 15.0806 45.0577 15.0806Z" fill="#F057C1"/>
</svg>
