<svg width="10" height="7" viewBox="0 0 10 7" fill="none" xmlns="http://www.w3.org/2000/svg">
<path d="M0.71875 1.42969H9.2344C9.5781 1.42969 9.8281 1.21094 9.8281 0.875005C9.8281 0.546885 9.5781 0.328125 9.2344 0.328125H0.71875C0.36719 0.328125 0.125 0.546885 0.125 0.875005C0.125 1.21094 0.36719 1.42969 0.71875 1.42969ZM1.875 4.01562H8.0781C8.4219 4.01562 8.6641 3.79689 8.6641 3.46095C8.6641 3.13282 8.4219 2.91406 8.0781 2.91406H1.875C1.52344 2.91406 1.28125 3.13282 1.28125 3.46095C1.28125 3.79689 1.52344 4.01562 1.875 4.01562ZM3.07812 6.6094H6.86719C7.2109 6.6094 7.4609 6.3828 7.4609 6.0547C7.4609 5.7266 7.2109 5.5078 6.86719 5.5078H3.07812C2.73438 5.5078 2.49219 5.7266 2.49219 6.0547C2.49219 6.3828 2.73438 6.6094 3.07812 6.6094Z" fill="black" fill-opacity="0.85"/>
</svg>
