<svg width="18" height="15" viewBox="0 0 18 15" fill="none" xmlns="http://www.w3.org/2000/svg">
<path d="M17.8863 5.43334C17.8274 5.76322 17.7858 6.09309 17.7057 6.41702C17.4942 7.27172 17.069 8.02713 16.5388 8.72614C15.7201 9.80581 14.7248 10.7179 13.6973 11.596C12.4859 12.6327 11.2705 13.6649 10.0508 14.6926C9.58368 15.0884 9.08133 15.1059 8.63092 14.7216C7.04747 13.3691 5.45999 12.0236 3.89564 10.6513C3.09135 9.94601 2.36883 9.15959 1.77968 8.26431C0.723712 6.65948 0.429808 4.93787 1.10743 3.13347C1.78504 1.32906 3.11816 0.257961 5.09538 0.0250707C5.13323 0.0186733 5.17071 0.0103044 5.20765 0H5.94492C5.96284 0.0117304 5.98252 0.0206318 6.00323 0.0263875C7.21939 0.151739 8.18823 0.726381 8.98314 1.61605C9.09876 1.74569 9.20767 1.8816 9.32865 2.02476C9.40137 1.93306 9.46069 1.85455 9.52369 1.77867C10.1708 0.999514 10.9567 0.419266 11.9563 0.153388C12.2013 0.0874132 12.454 0.0504706 12.703 0H13.4403C13.4946 0.00956633 13.5488 0.0181432 13.6025 0.029029C13.9232 0.0950037 14.2556 0.127988 14.5626 0.232228C16.2717 0.815114 17.2848 2.02377 17.7225 3.72394C17.8026 4.03468 17.8354 4.3573 17.89 4.67463L17.8863 5.43334ZM9.31625 14.0041C9.35646 13.9731 9.38763 13.9513 9.41678 13.9266C10.7831 12.7644 12.1578 11.6119 13.512 10.4362C14.4413 9.62999 15.3216 8.7743 16.011 7.74905C16.6722 6.76405 16.9986 5.69229 16.8465 4.5064C16.6826 3.22649 16.1253 2.1643 14.9698 1.49564C13.8927 0.873174 12.758 0.796971 11.6132 1.3373C10.9372 1.65695 10.4382 2.17815 10.0207 2.78017C9.95365 2.87517 9.89534 2.97513 9.8243 3.06617C9.76649 3.14402 9.69084 3.20734 9.60349 3.25099C9.51614 3.29464 9.41957 3.31739 9.32162 3.31739C9.22366 3.31739 9.12708 3.29464 9.03973 3.25099C8.95239 3.20734 8.87674 3.14402 8.81893 3.06617C8.56457 2.74092 8.33501 2.39323 8.05284 2.09337C7.43521 1.43726 6.66945 1.04636 5.75055 0.996546C4.06153 0.905171 2.5565 1.93042 2.02499 3.51579C1.51829 5.02694 1.75287 6.43253 2.6329 7.74971C3.17882 8.56681 3.84705 9.28263 4.5813 9.93249C5.79512 11.0072 7.0334 12.0552 8.26296 13.1128C8.61015 13.412 8.96236 13.7052 9.31625 14.0044V14.0041Z" fill="white"/>
</svg>
