<svg width="21" height="21" viewBox="0 0 21 21" fill="none" xmlns="http://www.w3.org/2000/svg">
  <path
    d="M18.2333 20.5H2.76628C2.73751 20.4862 2.70751 20.475 2.67668 20.4667C1.66845 20.2895 0.994335 19.7128 0.638695 18.7585C0.576096 18.5903 0.54597 18.4099 0.500977 18.235V2.77124C0.514051 2.74895 0.524053 2.72499 0.530711 2.70003C0.656301 1.59826 1.66532 0.494155 3.19117 0.500023C8.06489 0.51763 12.9386 0.5055 17.8123 0.509021C18.0398 0.505425 18.2669 0.526945 18.4896 0.573187C19.7075 0.850975 20.4963 1.85962 20.4966 3.13353C20.4987 7.21246 20.4987 11.2915 20.4966 15.3707C20.4966 16.2361 20.5041 17.1012 20.4939 17.9666C20.491 18.4976 20.3218 19.0142 20.01 19.444C19.6983 19.8737 19.2598 20.195 18.756 20.3627C18.5874 20.421 18.4086 20.455 18.2333 20.5ZM1.67667 14.2423C1.75765 14.1778 1.80812 14.1402 1.85585 14.0995C2.80736 13.2909 3.75938 12.4824 4.71193 11.6738C5.4013 11.0888 6.1787 11.0818 6.87394 11.6542C7.40642 12.0924 7.93538 12.5349 8.4663 12.9755C8.57976 13.0694 8.69401 13.1629 8.84816 13.2885C8.88746 13.2222 8.93209 13.1593 8.98158 13.1003C10.6864 11.391 12.3926 9.68321 14.1002 7.97683C14.2298 7.84001 14.3775 7.72154 14.5392 7.6247C15.2614 7.22406 16.0435 7.40013 16.5893 8.07191C17.45 9.1322 18.3108 10.1926 19.1715 11.2532C19.2106 11.2997 19.2529 11.3412 19.3127 11.405C19.3182 11.3432 19.3221 11.3185 19.3221 11.2939C19.3221 8.56762 19.3264 5.84138 19.3221 3.11671C19.3202 2.27043 18.7247 1.6863 17.8745 1.68551C12.9613 1.68238 8.04806 1.68382 3.13483 1.68982C2.90772 1.69044 2.68327 1.73869 2.47597 1.83145C1.91454 2.09046 1.67979 2.56779 1.6794 3.17149C1.6794 6.80178 1.6794 10.4323 1.6794 14.0631L1.67667 14.2423ZM10.4973 19.3247C12.9441 19.3247 15.3909 19.3247 17.8378 19.3247C18.7345 19.3247 19.3206 18.7409 19.3245 17.8485C19.3276 16.3844 19.3266 14.9205 19.3213 13.4567C19.319 13.3622 19.2868 13.2709 19.2294 13.1957C18.0604 11.7481 16.8883 10.3031 15.7133 8.86067C15.4214 8.5015 15.2438 8.49328 14.9191 8.82154C13.0615 10.6816 11.2037 12.5414 9.34582 14.4012C9.02695 14.7204 8.74722 14.7357 8.40293 14.4513C7.65565 13.8336 6.90955 13.2146 6.16462 12.5944C5.86884 12.3491 5.7413 12.3467 5.45021 12.5944C4.23031 13.6309 3.01211 14.6692 1.7956 15.7091C1.72876 15.7728 1.68874 15.8595 1.6837 15.9517C1.67431 16.5891 1.6751 17.2268 1.68136 17.8645C1.68109 18.0139 1.70029 18.1626 1.73848 18.307C1.92002 18.9581 2.44272 19.327 3.17787 19.327C5.6161 19.3265 8.05589 19.3257 10.4973 19.3247Z"
    fill="white" />
  <path
    d="M3.95808 5.79718C3.96942 4.22474 5.24918 2.95552 6.81415 2.96726C8.3717 2.9786 9.64363 4.26152 9.6362 5.814C9.62877 7.38214 8.34079 8.65566 6.77738 8.64001C5.21397 8.62436 3.94673 7.35123 3.95808 5.79718ZM6.80202 7.46195C7.23952 7.45839 7.65815 7.2833 7.96791 6.97434C8.27768 6.66537 8.45385 6.24719 8.45855 5.8097C8.46364 4.90786 7.69133 4.13593 6.79108 4.14414C6.35112 4.14559 5.92975 4.32176 5.61968 4.6339C5.30961 4.94603 5.13623 5.36855 5.13768 5.80852C5.13913 6.24849 5.3153 6.66986 5.62742 6.97994C5.93955 7.29002 6.36206 7.4634 6.80202 7.46195Z"
    fill="white" />
</svg>
