<svg width="23" height="17" viewBox="0 0 23 17" fill="none" xmlns="http://www.w3.org/2000/svg">
<path d="M18.5 10.168V2.16797C18.5 1.06797 17.6 0.167969 16.5 0.167969H2.5C1.4 0.167969 0.5 1.06797 0.5 2.16797V10.168C0.5 11.268 1.4 12.168 2.5 12.168H16.5C17.6 12.168 18.5 11.268 18.5 10.168ZM9.5 9.16797C7.84 9.16797 6.5 7.82797 6.5 6.16797C6.5 4.50797 7.84 3.16797 9.5 3.16797C11.16 3.16797 12.5 4.50797 12.5 6.16797C12.5 7.82797 11.16 9.16797 9.5 9.16797ZM22.5 3.16797V14.168C22.5 15.268 21.6 16.168 20.5 16.168H3.5V14.168H20.5V3.16797H22.5Z" fill="#343539"/>
</svg>
