<svg width="20" height="20" viewBox="0 0 20 20" fill="none" xmlns="http://www.w3.org/2000/svg">
  <g clip-path="url(#clip0_506_227)">
    <path
      d="M9.96094 19.9316C15.4102 19.9316 19.9219 15.4199 19.9219 9.9707C19.9219 4.53125 15.4004 0.00976562 9.95117 0.00976562C4.51172 0.00976562 0 4.53125 0 9.9707C0 15.4199 4.52148 19.9316 9.96094 19.9316ZM5.36133 15.0879C4.95117 15.0879 4.76562 14.8242 4.76562 14.4531C4.76562 13.3594 6.42578 10.498 9.96094 10.498C13.4961 10.498 15.1562 13.3594 15.1562 14.4531C15.1562 14.8242 14.9707 15.0879 14.5605 15.0879H5.36133ZM9.96094 9.66797C8.53516 9.6582 7.37305 8.45703 7.37305 6.83594C7.37305 5.33203 8.53516 4.08203 9.96094 4.08203C11.3867 4.08203 12.5488 5.33203 12.5488 6.83594C12.5488 8.45703 11.3867 9.67773 9.96094 9.66797Z"
      fill="white" fill-opacity="0.85" />
  </g>
  <defs>
    <clipPath id="clip0_506_227">
      <rect width="19.9219" height="19.9316" fill="white" />
    </clipPath>
  </defs>
</svg>
