<svg width="19" height="15" viewBox="0 0 19 15" fill="none" xmlns="http://www.w3.org/2000/svg">
<g clip-path="url(#clip0_833_13597)">
<path d="M2.45312 14.3828H15.9688C17.6094 14.3828 18.4219 13.5781 18.4219 11.9688V2.42188C18.4219 0.8125 17.6094 0 15.9688 0H2.45312C0.820312 0 0 0.8125 0 2.42188V11.9688C0 13.5781 0.820312 14.3828 2.45312 14.3828ZM2.46875 13.125C1.6875 13.125 1.25781 12.7109 1.25781 11.8984V2.49219C1.25781 1.67969 1.6875 1.25781 2.46875 1.25781H15.9531C16.7266 1.25781 17.1641 1.67969 17.1641 2.49219V11.8984C17.1641 12.7109 16.7266 13.125 15.9531 13.125H2.46875Z" fill="black" fill-opacity="0.85"/>
<path d="M7.75781 10.2422L12.2109 7.60937C12.5391 7.42187 12.5312 6.96874 12.2109 6.77343L7.75781 4.14061C7.42969 3.9453 6.97656 4.09374 6.97656 4.47655V9.90624C6.97656 10.2812 7.39844 10.4609 7.75781 10.2422Z" fill="black" fill-opacity="0.85"/>
</g>
<defs>
<clipPath id="clip0_833_13597">
<rect width="18.4219" height="14.3828" fill="white"/>
</clipPath>
</defs>
</svg>
