<svg width="20" height="23" viewBox="0 0 20 23" fill="none" xmlns="http://www.w3.org/2000/svg">
<path d="M0.462932 11.6729C0.462932 8.56582 0.462932 5.45876 0.462932 2.35169C0.462932 2.07978 0.396401 1.79907 0.441405 1.53597C0.577397 0.738823 1.43053 0.264449 2.19658 0.545161C2.39251 0.622723 2.58111 0.71764 2.76012 0.828798C8.10848 3.94108 13.4568 7.05532 18.8052 10.1715C20.0859 10.9178 20.0898 12.0553 18.8169 12.8006C13.4484 15.9481 8.07978 19.094 2.7112 22.2382C1.88253 22.7273 1.15463 22.6608 0.73296 21.9986C0.558865 21.6923 0.469065 21.3454 0.472714 20.9931C0.455103 17.8887 0.462932 14.7793 0.462932 11.6729Z" fill="white"/>
</svg>
