<svg width="15" height="16" viewBox="0 0 15 16" fill="none" xmlns="http://www.w3.org/2000/svg">
<path d="M0.97168 7.42415C0.997212 7.31058 1.01922 7.19613 1.04857 7.08372C1.52488 5.24805 3.77992 4.61561 5.14281 5.93507C5.17392 5.96442 5.20562 5.99377 5.24523 6.0325C5.43335 5.91688 5.61971 5.80301 5.80518 5.68826C6.9239 4.99508 8.04272 4.30238 9.16164 3.61018C9.24205 3.56029 9.27491 3.52214 9.24058 3.41619C8.76633 1.93122 9.6893 0.457394 11.24 0.212931C11.2634 0.207225 11.2862 0.199365 11.3081 0.189453H11.8364C11.9446 0.213811 12.0538 0.235528 12.1615 0.262821C13.2864 0.549251 14.0794 1.59989 14.0207 2.72477C13.9573 3.93623 13.0956 4.90792 11.9168 5.07255C11.1423 5.18055 10.4608 4.95722 9.88299 4.42691C9.84015 4.38759 9.79877 4.3468 9.74829 4.29867L5.72507 6.79143C5.92433 7.71528 5.92433 7.71528 5.72507 8.58484L9.74565 11.0761C9.82782 11.0019 9.90794 10.9256 9.99246 10.8543C10.377 10.5292 10.8527 10.3309 11.3544 10.2868C11.856 10.2426 12.359 10.3546 12.7945 10.6075C13.675 11.1169 14.1662 12.1453 13.9928 13.1164C13.8041 14.1729 13.0243 14.9679 11.9931 15.151C10.1908 15.4697 8.68034 13.7526 9.22796 12.0053C9.26993 11.8726 9.24704 11.8148 9.12935 11.7411C7.87035 10.9681 6.61439 10.1902 5.36145 9.40744C5.26754 9.34875 5.22058 9.36108 5.14252 9.43327C4.41969 10.1036 3.57772 10.3228 2.64154 10.0029C1.70536 9.68302 1.16596 9.00509 0.998091 8.03135C0.991448 8.00328 0.982818 7.97573 0.972265 7.94888L0.97168 7.42415ZM11.5699 14.2876C11.7752 14.2876 11.9784 14.247 12.1679 14.1681C12.3574 14.0892 12.5294 13.9735 12.674 13.8278C12.8186 13.6821 12.9329 13.5092 13.0104 13.3191C13.0878 13.129 13.1269 12.9254 13.1253 12.7202C13.1219 12.3085 12.9559 11.9149 12.6636 11.6251C12.3713 11.3353 11.9762 11.1728 11.5646 11.173C11.3594 11.1733 11.1564 11.2142 10.9671 11.2934C10.7778 11.3725 10.6061 11.4883 10.4618 11.6341C10.3174 11.7799 10.2034 11.9529 10.1262 12.1429C10.0489 12.333 10.0101 12.5364 10.0118 12.7416C10.0135 13.1532 10.1786 13.5473 10.4708 13.8372C10.763 14.1271 11.1583 14.2891 11.5699 14.2876ZM10.0107 2.64025C10.0089 3.05226 10.1706 3.44816 10.4604 3.74104C10.7502 4.03391 11.1444 4.19984 11.5564 4.20241C11.7616 4.20349 11.9649 4.16409 12.1549 4.08647C12.3448 4.00885 12.5176 3.89453 12.6633 3.75005C12.809 3.60558 12.9248 3.43378 13.004 3.24451C13.0832 3.05523 13.1243 2.85218 13.125 2.647C13.1255 2.4419 13.0854 2.23873 13.007 2.04919C12.9286 1.85965 12.8136 1.68748 12.6684 1.54259C12.5232 1.3977 12.3508 1.28295 12.1612 1.20494C11.9715 1.12694 11.7682 1.08722 11.5631 1.08807C11.3593 1.08803 11.1574 1.12815 10.969 1.20614C10.7807 1.28412 10.6095 1.39845 10.4654 1.54259C10.3212 1.68672 10.2069 1.85785 10.1288 2.04619C10.0508 2.23453 10.0107 2.43639 10.0107 2.64025ZM3.43333 6.13258C3.22823 6.13099 3.02484 6.17007 2.83494 6.24757C2.64503 6.32507 2.47237 6.43944 2.32694 6.58408C2.18151 6.72872 2.0662 6.90075 1.98767 7.09023C1.90913 7.27971 1.86894 7.48288 1.86941 7.68799C1.86871 8.09955 2.03143 8.49456 2.32182 8.78621C2.61221 9.07787 3.00651 9.24231 3.41807 9.24339C3.82963 9.24582 4.22538 9.08503 4.51863 8.79624C4.81187 8.50745 4.9787 8.11421 4.98258 7.70266C4.98467 7.49759 4.94618 7.29413 4.86934 7.10399C4.7925 6.91385 4.67881 6.74078 4.53482 6.59475C4.39083 6.44871 4.21939 6.33259 4.03035 6.25308C3.84131 6.17356 3.63841 6.13221 3.43333 6.1314V6.13258Z" fill="#2D93E7"/>
</svg>
