<svg width="17" height="15" viewBox="0 0 17 15" fill="none" xmlns="http://www.w3.org/2000/svg">
<g clip-path="url(#clip0_2440_3946)">
<path d="M3.94672 15C3.92909 14.9904 3.91063 14.9824 3.89155 14.9761C3.38245 14.8641 3.10356 14.4415 3.21789 13.939C3.53695 12.536 3.85909 11.1335 4.18431 9.73146C4.21698 9.59061 4.19602 9.5064 4.08231 9.40842C2.99159 8.46694 1.90447 7.52139 0.82094 6.57175C0.540196 6.32678 0.429255 6.02242 0.543586 5.66661C0.656685 5.31907 0.913391 5.12708 1.2832 5.09064C1.56856 5.06226 1.85403 5.03542 2.1396 5.01011C3.31804 4.90416 4.49639 4.79924 5.67463 4.69533C5.77263 4.68676 5.82409 4.65001 5.86415 4.55601C6.4315 3.22739 7.00439 1.90122 7.57419 0.572913C7.72828 0.214348 7.98344 -0.000915683 8.38037 2.92825e-06C8.77174 2.92825e-06 9.02506 0.214346 9.17576 0.567093C9.73478 1.87183 10.3006 3.17381 10.8528 4.4813C10.9222 4.64481 11.0115 4.69104 11.1783 4.70513C12.5866 4.82486 13.9937 4.95744 15.402 5.079C15.8514 5.11759 16.1222 5.35459 16.2498 5.77133V6.07753C16.1682 6.34577 15.9836 6.53408 15.7755 6.71352C14.7392 7.60886 13.7108 8.51277 12.6726 9.40811C12.5604 9.50487 12.5336 9.58694 12.5669 9.72993C12.8942 11.1317 13.2165 12.5346 13.5339 13.9384C13.6402 14.406 13.3934 14.831 12.9512 14.9562C12.8926 14.9727 12.8331 14.9868 12.7743 15.0015H12.6818C12.5037 14.929 12.312 14.8769 12.1493 14.7805C10.9337 14.066 9.72153 13.3459 8.51288 12.6202C8.40903 12.559 8.33815 12.5632 8.238 12.6229C7.08544 13.3127 5.93041 13.9989 4.77292 14.6816C4.55998 14.8068 4.32546 14.8959 4.1008 15.0015L3.94672 15ZM8.37513 1.20247C8.25186 1.49213 8.14369 1.73924 8.03614 1.98665C7.59402 3.01488 7.15231 4.04342 6.71101 5.07227C6.57141 5.39991 6.3412 5.61119 5.98003 5.64517C4.83271 5.75326 3.68477 5.85309 2.53683 5.95658C2.26934 5.98077 2.00215 6.00711 1.68412 6.03712C1.76024 6.09836 1.80061 6.12898 1.83821 6.16174C2.85579 7.04748 3.87337 7.93313 4.89095 8.81867C5.1683 9.05935 5.27246 9.353 5.19203 9.70819C4.98761 10.6109 4.78155 11.5132 4.57384 12.415C4.4666 12.8851 4.35997 13.3551 4.24749 13.849C4.31313 13.8129 4.35689 13.7899 4.39942 13.7648C5.54612 13.0838 6.69622 12.4071 7.8383 11.7181C8.2081 11.4949 8.54709 11.4986 8.9169 11.7209C10.0504 12.4046 11.1915 13.0758 12.3296 13.7516C12.3789 13.7822 12.4288 13.8089 12.4966 13.8481C12.4886 13.8 12.4861 13.7801 12.4818 13.7608C12.1753 12.4172 11.8683 11.0737 11.561 9.73024C11.4778 9.36861 11.5703 9.07067 11.8535 8.8251C12.8602 7.95078 13.8659 7.07494 14.8708 6.19757C14.9222 6.15286 14.9722 6.10571 15.0427 6.04263C14.9811 6.03099 14.9503 6.02303 14.9225 6.02058C13.5666 5.8981 12.2088 5.77133 10.8513 5.65528C10.4507 5.62099 10.189 5.43145 10.034 5.06584C9.61706 4.08201 9.19271 3.10124 8.77052 2.11955C8.64478 1.82682 8.51874 1.5347 8.37513 1.20308V1.20247Z" fill="white"/>
</g>
<defs>
<clipPath id="clip0_2440_3946">
<rect width="15.75" height="15" fill="white" transform="translate(0.5)"/>
</clipPath>
</defs>
</svg>
