<svg width="20" height="21" viewBox="0 0 20 21" fill="none" xmlns="http://www.w3.org/2000/svg">
<path fill-rule="evenodd" clip-rule="evenodd" d="M10.3548 17.9039C10.1326 17.7817 9.86736 17.7817 9.6453 17.9039L4.64605 20.6568C4.08681 20.9642 3.43321 20.4668 3.54001 19.8145L4.49473 13.9845C4.53719 13.7255 4.45516 13.4613 4.27549 13.2779L0.231036 9.14883C-0.221397 8.68695 0.0282603 7.88215 0.653509 7.78698L6.24287 6.93636C6.49115 6.8986 6.70574 6.73525 6.81681 6.49956L9.31643 1.19503C9.59605 0.601656 10.4039 0.601656 10.6836 1.19503L13.1832 6.49956C13.2943 6.73525 13.5089 6.8986 13.7572 6.93636L19.3465 7.78698C19.9717 7.88215 20.2214 8.68695 19.769 9.14883L15.7245 13.2779C15.5448 13.4613 15.4629 13.7255 15.5053 13.9845L16.4601 19.8145C16.5669 20.4668 15.9133 20.9642 15.354 20.6568L10.3548 17.9039Z" fill="#FFD200"/>
</svg>
