<svg width="27" height="20" viewBox="0 0 27 20" fill="none" xmlns="http://www.w3.org/2000/svg">
<path d="M17.0537 6.99381e-07C17.606 7.23523e-07 18.0537 0.447716 18.0537 1C18.0537 1.55229 17.606 2 17.0537 2L1.05371 2C0.501427 2 0.0537109 1.55228 0.0537109 1C0.053711 0.447715 0.501426 -2.41411e-08 1.05371 0L17.0537 6.99381e-07Z" fill="white"/>
<path d="M8.05371 1C8.05371 0.447716 8.50143 7.43094e-07 9.05371 7.43094e-07C9.606 7.43094e-07 10.0537 0.447716 10.0537 1V19C10.0537 19.5523 9.606 20 9.05371 20C8.50143 20 8.05371 19.5523 8.05371 19V1Z" fill="white"/>
<path d="M25.0225 5.9834C25.5747 5.9834 26.0225 6.43111 26.0225 6.9834C26.0225 7.53568 25.5747 7.9834 25.0225 7.9834L14.0181 7.9834C13.4658 7.9834 13.0181 7.53568 13.0181 6.9834C13.0181 6.43111 13.4658 5.9834 14.0181 5.9834L25.0225 5.9834Z" fill="white"/>
<path d="M18.5203 6.9834C18.5203 6.43111 18.968 5.9834 19.5203 5.9834C20.0725 5.9834 20.5203 6.43111 20.5203 6.9834V18.9834C20.5203 19.5357 20.0725 19.9834 19.5203 19.9834C18.968 19.9834 18.5203 19.5357 18.5203 18.9834V6.9834Z" fill="white"/>
</svg>
