<svg width="15" height="15" viewBox="0 0 15 15" fill="none" xmlns="http://www.w3.org/2000/svg">
<g clip-path="url(#clip0_2440_3942)">
<path d="M15 9.20467C14.9297 9.55328 14.802 9.87694 14.5775 10.1624C14.5567 10.1891 14.5603 10.2458 14.5715 10.2831C14.8201 11.0993 14.6288 11.803 14.0111 12.4033C13.9708 12.4497 13.9503 12.5093 13.9537 12.5699C14.0141 13.4157 13.6338 14.0292 12.9032 14.4495C12.3081 14.7931 11.6469 14.945 10.9652 14.9738C9.58064 15.0325 8.19606 14.9799 6.81391 14.8962C5.94357 14.8434 5.07626 14.7388 4.20713 14.6613C4.13416 14.655 4.06088 14.6692 3.99589 14.7021C3.77674 14.8236 3.52864 14.8869 3.27644 14.8856C2.64904 14.8883 2.02164 14.8909 1.39424 14.8856C0.723079 14.8795 0.225744 14.5141 0.0513152 13.8982C0.0169125 13.7659 0.000472886 13.6297 0.00242325 13.4932C-0.000795746 11.8521 -0.00140108 10.2109 0.000610795 8.56969C0.000610795 7.72883 0.570072 7.17786 1.43588 7.1758C1.97305 7.1758 2.51022 7.17727 3.04709 7.1758C3.3537 7.1758 3.65971 7.16963 3.94489 7.33528C4.12958 6.9708 4.33146 6.63041 4.63385 6.36902C4.95253 6.09324 5.23379 5.78573 5.4402 5.42919C5.84006 4.73665 6.22665 4.03618 6.5906 3.32544C6.81572 2.88489 6.9974 2.42378 7.18118 1.96503C7.23309 1.83551 7.22705 1.68337 7.24154 1.54064C7.27172 1.24694 7.2696 0.945019 7.33207 0.659545C7.40872 0.315626 7.65739 0.0988732 8.00896 0.00195312H8.3711C8.39871 0.0121734 8.42706 0.0204214 8.4559 0.0266263C9.4554 0.174943 10.1127 0.880991 10.1824 1.86135C10.2216 2.41527 10.1338 2.9498 9.98351 3.47963C9.83323 4.00946 9.6769 4.53958 9.53808 5.07323C9.49161 5.2518 9.49161 5.44152 9.46898 5.63801C9.87638 5.56752 10.2442 5.49321 10.6157 5.44152C11.398 5.33314 12.1823 5.28087 12.9669 5.42625C13.4172 5.50936 13.8421 5.65534 14.1792 5.96901C14.7157 6.46829 14.8328 7.07477 14.6177 7.75468C14.6014 7.80637 14.5799 7.88244 14.605 7.91621C14.8162 8.19934 14.9237 8.51976 14.9973 8.85604L15 9.20467ZM4.65407 13.8574C4.67158 13.8604 4.69089 13.8648 4.7102 13.8662C5.55518 13.9385 6.39776 14.0424 7.24516 14.0742C8.48789 14.12 9.73244 14.1294 10.9761 14.1203C11.4808 14.1137 11.976 13.9864 12.4183 13.7496C12.9428 13.4736 13.1782 13.0621 13.0671 12.5223C13.0068 12.2248 13.0973 12.0359 13.3291 11.8532C13.8062 11.4779 13.9414 10.9463 13.6912 10.4229C13.5626 10.1527 13.6088 9.94831 13.8053 9.73156C14.2323 9.26164 14.2244 8.77557 13.8053 8.29772C13.5789 8.04015 13.5681 7.9494 13.7262 7.64014C14.0099 7.08535 13.8167 6.56374 13.2132 6.36931C12.8894 6.26534 12.5393 6.21541 12.1974 6.19309C11.292 6.13288 10.4096 6.3047 9.53114 6.49296C9.10231 6.58459 8.70698 6.35287 8.65598 5.92965C8.61856 5.61921 8.60709 5.28997 8.67137 4.98688C8.7957 4.40095 8.98009 3.82707 9.14215 3.24878C9.26286 2.81352 9.34977 2.37473 9.31326 1.9198C9.26558 1.32859 8.93785 0.960585 8.35933 0.857497C8.19094 0.828127 8.14537 0.851036 8.1339 1.01257C8.12032 1.20641 8.12847 1.40172 8.12334 1.59614C8.11972 1.73124 8.14295 1.87809 8.09708 1.99909C7.66071 3.14921 7.15131 4.2682 6.52541 5.33315C6.201 5.88471 5.85093 6.42335 5.36386 6.85626C5.11912 7.06704 4.9214 7.32444 4.78293 7.61253C4.70356 7.782 4.63476 7.96644 4.61575 8.14971C4.59522 8.34502 4.65226 8.54678 4.65286 8.74561C4.65558 10.4447 4.65407 12.1437 4.65407 13.8574ZM0.872459 11.0221C0.872459 11.8571 0.872459 12.692 0.872459 13.5267C0.872459 13.8527 1.06288 14.0378 1.39303 14.038C2.00524 14.038 2.61736 14.038 3.22937 14.038C3.60026 14.038 3.78313 13.8604 3.78343 13.4962C3.78343 11.8515 3.78343 10.2062 3.78343 8.5603C3.78343 8.19494 3.60478 8.02253 3.22907 8.02165C2.62691 8.02028 2.02486 8.02028 1.42291 8.02165C1.04809 8.02165 0.872156 8.19611 0.871855 8.56205C0.872056 9.38186 0.872258 10.2019 0.872459 11.0221Z" fill="white"/>
</g>
<defs>
<clipPath id="clip0_2440_3942">
<rect width="15" height="15" fill="white"/>
</clipPath>
</defs>
</svg>
