<svg width="22" height="16" viewBox="0 0 22 16" fill="none" xmlns="http://www.w3.org/2000/svg">
<path d="M10.8265 15.1461H10.6027C10.5375 15.1347 10.4717 15.1266 10.4057 15.1219C9.34098 15.1022 8.27632 15.0928 7.21208 15.0628C5.70864 15.018 4.20383 14.9835 2.71515 14.7436C1.54794 14.5551 0.768471 13.8969 0.440739 12.7517C0.344603 12.3928 0.275911 12.0272 0.235242 11.6579C0.0207836 9.97176 -0.033395 8.27668 0.0180929 6.57982C0.0557015 5.30874 0.116146 4.03766 0.366869 2.78583C0.622966 1.50535 1.42437 0.686917 2.71515 0.492159C3.61291 0.35491 4.51829 0.273119 5.42612 0.247254C7.778 0.185916 10.1312 0.145173 12.4835 0.146517C14.4934 0.146517 16.5041 0.203377 18.5027 0.459921C19.9856 0.649307 20.8389 1.45655 21.1116 2.91164C21.3287 4.07079 21.3945 5.24293 21.4286 6.41819C21.4859 8.40608 21.4366 10.3895 21.1062 12.3563C20.8882 13.6547 20.0693 14.5309 18.8676 14.7369C18.3624 14.8287 17.8519 14.8885 17.3391 14.9159C15.5092 14.9947 13.6785 15.0503 11.8482 15.1143C11.5083 15.125 11.1677 15.1356 10.8265 15.1461ZM8.60538 4.41778V10.826L14.1733 7.62212L8.60538 4.41778Z" fill="white"/>
</svg>
